<?xml version="1.0" encoding="UTF-8"?>
<svg id="Layer_1" data-name="Layer 1" xmlns="http://www.w3.org/2000/svg" viewBox="0 0 1741.59 1389.89">
  <defs>
    <style>
      .cls-1, .cls-2, .cls-3 {
        stroke-width: 0px;
      }

      .cls-2 {
        fill: #3c2415;
      }

      .cls-3 {
        fill: #fff;
      }
    </style>
  </defs>
  <path class="cls-1" d="m1178.48,657.18c-.62,198.56-151.71,377.63-366.64,383.19-210.59,5.45-375.06-165.61-385.34-363.69-10.55-203.44,148.1-383.48,369.36-388.34,205.6-4.52,381.25,155.75,382.62,368.84Zm-18-1.04c.41-209.06-176.8-352.43-361.93-350.27-200.16,2.34-357.54,160.45-353.74,360.13,3.78,199.01,166.18,361.39,367,356.73,184.48-4.28,347.46-151.42,348.67-366.59Z"/>
  <path class="cls-2" d="m1128.6,731.32c-29.75,4.16-56.56-4.5-81.15-21.29-7.17-4.9-9.22-10.78-8.93-19.38.69-20.48.53-41.02-.07-61.51-.76-26.43,7.41-39.5,31.93-50.34,21.69-9.6,43.87-8.14,67.79-3.42-24.6-123.05-159.17-265.28-351.08-257.39-163.43,6.71-294.9,129.41-318.74,258.34,30.42-9.22,58.71-6.47,84.46,13.14,10.23,7.79,15.72,16.59,13.79,30.09-2.61,18.31-2.55,36.83-1.48,55.31,1.91,32.93,1.05,34.33-29.28,47.35-9.47,4.06-19.39,6.33-29.35,8.8-14.09,3.5-28.16-.9-42.52.34,1.82,6.8,3.48,12.71,4.99,18.65,38.94,152.71,192.98,285.85,383.34,257.66,140.43-20.8,252.96-125.03,286.19-264.2,2.38-9.97,2.42-13.88-9.89-12.15Zm-321.3,137.45c-116.53,1.19-221.14-101.37-221.22-215.79-.07-114.7,96.04-205.13,218.46-205.53,119.35-.4,216.84,91.95,218.73,205,2.05,122.95-107.81,215.22-215.97,216.32Z"/>
  <path class="cls-2" d="m613.06,653.9c23.31-17.39,18.55-44.93,25.79-68.07,5.57-17.83,14.96-32.98,30.97-42.55,12.54-7.5,17.9-18.07,21.19-31.63,6.12-25.2,14.62-33.98,40.43-44.12-21.48,11.13-29.74,31.16-37.88,51.9-3.5,8.92-1.1,11.36,6.36,14.1,15.86,5.82,31.62,11.96,47.22,18.45,7.67,3.19,13.95-.1,20.57-2.7,18.11-7.1,36.04-14.73,54.42-21.06,6.69-2.31,9.86-5.06,11.33-12.13,3.04-14.6,9.29-28.14,15.92-41.52,2.79-5.63,5.79-7.43,11.84-6.41,26.17,4.42,50.49,13.82,72,29.1,13.3,9.45,14.1,26.68,20.34,40.49,1.26,2.78-.39,4.93-2.4,6.64-1.55,1.32-3.2,2.6-4.99,3.56-27.98,15.1-37.3,37.54-28.43,68.33,1.77,6.15,2.81,11.26,8.32,15.21,14.22,10.2,27.67,21.72,38.2,35.51,10.44,13.69,20.6,14.49,33.62,5.31,2.75-1.94,5.98-3.18,9.85-5.19-.54,2.22-.46,3.37-1,3.88-7.15,6.87-31.51,44.66-34.66,53.95-3.85,11.37-9.12,22.26-18.97,29.26-17.7,12.59-27.67,29.5-31.89,50.39-3.04,15.02-13.08,22.08-27.02,27.87-51.59,21.41-103.18,23.82-155.88,5.02-25.47-9.09-46.29-23.46-60.59-47.05-5.43-8.96-7.17-16.7-.7-25.39.91-1.22,1.15-3.06,2.23-4.01,29.66-26.09,13.3-55.5,6.17-84.25-1.36-5.47-5.26-8.41-9.9-11.05-7.57-4.29-15.11-8.72-22.3-13.61-20.65-14.06-20.58-14.16-40.16,1.76Zm236.96,54.97q.91-36.13-27.38-48.71c-4.2-1.87-8.25-4.06-12.45-5.92-17.74-7.85-35.49-21.7-53.28-21.77-18.65-.08-34.1,18.7-51.54,28.24-1.79.98-3.4,2.34-5.25,3.16-8.08,3.59-8.78,8.99-6.81,17.37,11.57,49.07,11.33,49.13,56.33,70.11.93.43,1.99.69,2.77,1.3,21.25,16.53,41.33,12.02,64.7,1.63,23.8-10.58,40.54-21.11,32.91-45.41Zm-91.5-114.95c-7.03,22.62,6.11,35.89,30.43,42.06,4.37,1.11,8.3,3.92,12.51,5.75,17.61,7.62,34.8,24.06,52.7,20.96,17.75-3.07,33.28-18.92,49.78-29.18.43-.27.82-.62,1.27-.85,5.69-2.98,6.97-7.54,6.86-13.93-.49-28.53-9.31-48.48-36.94-64.85-30.5-18.07-55.9-21.78-87.61-6.66-28.81,13.73-29.78,11.69-29.01,46.71Zm57.53,231.5c28.86-.96,57.03-5.98,84.81-13.81,14.53-4.09,18.13-16.44,20.57-28.07,2.44-11.62-10.89-9.42-16.73-13.93-3.56-2.75-8.75-3.34-12.39-6.02-26.4-19.4-51.76-18.06-80.16-1.84-24.22,13.84-25.57,11.48-23.02,39.53,2.13,23.44,3.31,24.5,26.91,24.13Z"/>
  <path class="cls-1" d="m605.01,877.43c1.31-8.22,6.88-12.29,10.81-17.32,1.71-2.18,3.86-5.55,7.36-3.47,3.75,2.23,3.26,6.18,1.59,9.43-3.99,7.75-10.37,11.48-19.75,11.36Z"/>
  <g>
    <path class="cls-3" d="m632.5,470.26c3.78,3.82,7.57,7.64,11.35,11.46-3.97,3.96-7.97,7.12-12.15,9.49-4.18,2.37-8.24,3.9-12.24,4.48-4,.58-7.93.49-11.78-.37-3.85-.86-7.5-2.46-10.89-4.93-4.8-3.49-9.61-6.98-14.41-10.47-3.4-2.47-6.02-5.5-7.79-9.17-1.77-3.66-2.63-7.83-2.51-12.49.12-4.65,1.53-9.88,4.33-15.52,2.8-5.63,6.91-11.28,12.33-16.68,3.78,3.82,7.57,7.64,11.35,11.46-3.4,3.39-5.15,7.08-5.23,10.87-.08,3.8,1.95,7.5,5.99,11.13,3.63,3.27,7.26,6.54,10.9,9.81,4.04,3.63,7.83,5.34,11.32,5.27,3.5-.08,6.6-1.53,9.43-4.35Zm-3.29-61.61c-3.42,6.12-6.58,12.33-9.47,18.59-4.54-1.17-9.54.59-14.69,5.45-3.69-3.92-7.38-7.83-11.06-11.74,6.86-6.5,13.54-10.66,19.66-12.69,6.13-2.02,11.34-1.81,15.56.38Zm18.49,69.33c-3.69-3.92-7.38-7.83-11.06-11.74,2.45-2.32,4.15-4.44,5.08-6.46.94-2.01,1.24-4.09.89-6.27,6.25-.86,12.42-1.41,18.49-1.67.28,9.33-4.23,17.47-13.41,26.14Z"/>
    <path class="cls-3" d="m679.9,415.6c3.93-2.07,7.92-4.02,11.94-5.86,3.49,4.1,6.9,8.25,10.23,12.45-6.38,2.78-12.65,5.86-18.8,9.25,1.17,5.21,2.43,10.38,3.78,15.52-6.09,3.51-12.04,7.34-17.83,11.49-6.32-18.47-11.36-37.59-15.05-57.21,7.05-4.26,14.25-8.17,21.59-11.73,1.13,8.77,2.52,17.48,4.15,26.09Zm9.2-53.28c17.99,20.09,33.82,41.51,47.38,63.92-6.6,1.84-13.13,4-19.56,6.48-12.09-16.81-25.48-32.91-40.1-48.17-5.49,2.59-10.92,5.37-16.26,8.34-3.62,2.02-6.72,3.05-9.38,3.02-2.65-.02-4.63-1.02-5.89-3.06-1.26-2.03-1.27-4.27.04-6.72,1.31-2.44,3.86-4.77,7.64-6.87,11.71-6.52,23.78-12.16,36.13-16.94Z"/>
    <path class="cls-3" d="m778.92,387.74c-1.08.07-2.16.15-3.24.23-3.52.27-6.3-.15-8.39-1.33-2.09-1.19-3.31-2.95-3.6-5.32-.29-2.33.47-4.33,2.34-5.96,1.86-1.63,4.69-2.63,8.44-2.92.62-.05,1.25-.09,1.87-.14,6.22-.43,9.27-2.67,9.13-7.06-.14-4.57-4.28-6.82-12.38-6.2-14.06,1.11-28.04,3.28-41.82,6.52-1.2-5.06-2.4-10.11-3.6-15.17,15.67-3.68,31.59-6.06,47.59-7.14,11.38-.76,20.39,1.18,26.6,5.14,6.24,3.98,8.95,9.74,8.53,16.99-.43,7.35-3.54,12.69-8.99,16.29-5.47,3.62-12.85,5.45-22.47,6.07Zm-14.01,32.58c-6.63.92-13.23,2.15-19.77,3.69-4.32-18.18-8.63-36.36-12.95-54.54,8.23-1.93,16.54-3.48,24.89-4.65,2.61,18.5,5.22,37,7.83,55.5Zm44.67-1.61c-7.31-.48-14.65-.6-21.97-.35-5.22-9.06-11.05-17.93-17.5-26.55,7.86-.8,15.75-1.22,23.64-1.26,5.95,9.2,11.23,18.61,15.83,28.17Z"/>
    <path class="cls-3" d="m853.85,426.27c-.98-.27-1.96-.54-2.94-.8-2.08-.55-3.68-1.73-4.85-3.57-1.17-1.84-1.51-3.92-.98-6.25.52-2.29,1.72-4.01,3.64-5.12,1.92-1.11,3.93-1.4,6-.85.62.16,1.25.33,1.87.5,1.37.37,2.59.6,3.67.66,1.07.06,2.27-.15,3.59-.64,1.32-.49,2.54-1.31,3.66-2.48,1.11-1.17,2.29-2.9,3.54-5.2,1.24-2.3,2.44-5.15,3.57-8.55,1.46-4.4,2.24-8.18,2.3-11.33.07-3.16-.63-5.86-2.1-8.09-1.47-2.23-3.46-4.05-5.95-5.43-2.49-1.38-5.77-2.59-9.83-3.55-10.59-2.49-21.3-4.36-32.08-5.59.6-5.16,1.2-10.32,1.8-15.48,11.82,1.35,23.58,3.43,35.19,6.22,6.35,1.53,11.84,3.42,16.44,5.54,4.6,2.12,8.67,4.77,12.15,7.88,3.48,3.11,5.94,6.57,7.39,10.27,1.45,3.7,1.96,7.95,1.55,12.7-.4,4.75-1.89,9.9-4.34,15.47-2.28,5.17-4.74,9.48-7.33,12.96-2.59,3.48-5.21,6.18-7.86,8.13-2.66,1.95-5.49,3.26-8.51,3.98-3.03.72-6.08.93-9.22.65-3.14-.28-6.58-.98-10.36-2.03Zm-13.92-3.4c-6.59-1.38-13.23-2.45-19.9-3.22,2.15-18.56,4.31-37.11,6.46-55.67,8.4.96,16.76,2.31,25.06,4.05-3.87,18.28-7.75,36.56-11.62,54.84Z"/>
    <path class="cls-3" d="m910.82,451.59c-5.83-3.69-11.79-7.07-17.88-10.15,11.41-22.51,22.81-45.02,34.22-67.53,8.22,4.15,16.27,8.72,24.14,13.7-13.49,21.32-26.98,42.65-40.48,63.97Z"/>
    <path class="cls-3" d="m955.95,468.53c-3.74,3.86-7.49,7.72-11.23,11.58-3.19-3.11-5.76-6.16-7.73-9.27-1.97-3.11-3.32-6.09-4.04-9.01-.71-2.92-.93-5.88-.63-8.9.3-3.02,1-5.93,2.14-8.71,1.14-2.78,2.69-5.56,4.69-8.32,3.49-4.81,6.98-9.62,10.47-14.43,2-2.76,4.18-5.08,6.58-6.93,2.4-1.86,5.14-3.25,8.26-4.14,3.11-.89,6.46-1.1,10.02-.59,3.55.51,7.5,1.89,11.76,4.21,4.27,2.33,8.63,5.59,12.99,9.84-3.74,3.86-7.49,7.72-11.23,11.58-2.95-2.87-5.96-4.01-8.92-3.45-2.97.55-6.31,2.97-10.06,7.2-3.25,3.65-6.5,7.3-9.76,10.95-3.76,4.22-5.84,7.77-6.3,10.6-.46,2.84.53,5.39,2.98,7.78Zm-7.42,15.39c3.84-3.77,7.68-7.53,11.52-11.3,2.4,2.47,4.99,3.49,7.86,3.06,2.86-.44,6.41-2.51,10.61-6.28,3.63-3.27,7.27-6.54,10.9-9.81,4.2-3.77,6.58-7.16,7.08-10.19.5-3.02-.69-6.08-3.57-9.05,3.84-3.77,7.68-7.53,11.52-11.3,4.31,4.42,7.67,8.9,10.1,13.28,2.42,4.38,3.9,8.45,4.49,12.11.59,3.66.47,7.12-.32,10.36-.79,3.24-2.13,6.07-3.97,8.49-1.84,2.42-4.15,4.62-6.9,6.62-4.8,3.49-9.61,6.98-14.41,10.47-2.75,2-5.54,3.54-8.33,4.66-2.79,1.12-5.74,1.76-8.83,1.96-3.09.21-6.11-.1-9.08-.88-2.97-.79-6.02-2.23-9.19-4.27-3.18-2.05-6.3-4.7-9.45-7.93Z"/>
  </g>
  <g>
    <path class="cls-3" d="m565.93,811.71c-6.73-9.95-12.97-20.51-18.66-31.67,3.04-1.55,6.07-3.09,9.11-4.64,5.48,10.76,11.5,20.93,17.99,30.53,1.32,1.95,1.99,3.71,1.98,5.32,0,1.6-.63,2.87-1.9,3.79-1.27.92-2.66,1.11-4.18.55-1.52-.56-2.98-1.85-4.35-3.88Zm-44.83,2.63c-3.1-5.34-6.07-10.81-8.93-16.41,10.92-5.56,21.83-11.12,32.75-16.69,2.53,4.97,5.17,9.82,7.91,14.55-10.58,6.18-21.16,12.37-31.73,18.55Zm30.7,11.87c-4.07-5.85-7.98-11.9-11.71-18.15,2.92-1.76,5.84-3.52,8.75-5.28,3.61,6.04,7.38,11.89,11.32,17.54-2.79,1.96-5.57,3.93-8.36,5.89Z"/>
    <path class="cls-3" d="m565.58,859.81c-2.64,2.35-5.28,4.69-7.91,7.04-2.43-2.76-4.3-5.52-5.64-8.22-1.34-2.7-2.13-5.21-2.4-7.49-.27-2.28-.1-4.44.48-6.47.58-2.03,1.48-3.85,2.68-5.44,1.19-1.59,2.69-3.06,4.47-4.41,3.11-2.35,6.22-4.7,9.33-7.05,1.78-1.35,3.59-2.39,5.41-3.15,1.82-.76,3.75-1.2,5.77-1.36,2.02-.16,4.01.06,5.99.63,1.98.57,4.01,1.6,6.12,3.08,2.11,1.47,4.17,3.37,6.21,5.7-2.64,2.35-5.28,4.69-7.91,7.04-1.52-1.73-3.2-2.48-5.08-2.26-1.88.23-4.24,1.53-7.07,3.93-2.45,2.08-4.89,4.15-7.34,6.23-2.83,2.4-4.48,4.54-4.94,6.45-.46,1.9.15,3.84,1.83,5.75Zm-4.97,10.34c2.61-2.38,5.21-4.76,7.82-7.15,1.7,1.88,3.54,2.69,5.47,2.45,1.93-.25,4.24-1.67,6.91-4.23,2.32-2.22,4.64-4.44,6.96-6.66,2.68-2.57,4.22-4.79,4.65-6.64.42-1.86-.13-3.62-1.67-5.32,2.61-2.38,5.21-4.76,7.82-7.15,2.09,2.31,3.73,4.56,4.92,6.8,1.2,2.24,1.95,4.35,2.26,6.35.31,2,.27,3.99-.12,5.97-.39,1.99-1.06,3.84-2.04,5.56-.97,1.72-2.22,3.4-3.74,5.03-2.67,2.85-5.33,5.7-8,8.54-1.53,1.63-3.13,2.98-4.81,4.02-1.68,1.05-3.55,1.77-5.6,2.14-2.06.38-4.18.34-6.35-.13-2.17-.47-4.52-1.49-7.01-3.08-2.49-1.6-5-3.76-7.48-6.51Z"/>
    <path class="cls-3" d="m611.31,902.26c-2.12,2.82-4.25,5.65-6.37,8.47-2.83-2.13-5.13-4.37-6.89-6.67-1.76-2.3-2.97-4.53-3.63-6.65-.66-2.12-.88-4.23-.68-6.3.2-2.07.75-4,1.62-5.79.87-1.79,2.05-3.51,3.52-5.19,2.58-2.93,5.15-5.86,7.73-8.79,1.48-1.68,3.03-3.08,4.65-4.2,1.62-1.12,3.39-1.98,5.31-2.57,1.91-.59,3.87-.83,5.88-.71,2,.11,4.14.66,6.44,1.61,2.29.95,4.61,2.33,6.99,4.12-2.12,2.82-4.25,5.65-6.37,8.47-1.77-1.33-3.52-1.69-5.29-1.07-1.77.63-3.81,2.38-6.11,5.3-1.99,2.52-3.97,5.05-5.96,7.57-2.3,2.92-3.51,5.33-3.61,7.26-.1,1.93.82,3.65,2.78,5.13Zm-2.95,11.01c2.09-2.85,4.17-5.7,6.26-8.55,1.97,1.44,3.89,1.84,5.71,1.18,1.82-.65,3.79-2.51,5.91-5.55,1.84-2.63,3.68-5.27,5.51-7.9,2.12-3.04,3.21-5.51,3.29-7.39.08-1.88-.77-3.45-2.55-4.76,2.09-2.85,4.17-5.7,6.26-8.55,2.42,1.77,4.41,3.59,5.96,5.5,1.55,1.91,2.66,3.78,3.32,5.64.65,1.86.98,3.79.96,5.8-.02,2-.34,3.93-.97,5.8-.63,1.86-1.53,3.75-2.71,5.65-2.06,3.31-4.12,6.63-6.18,9.94-1.18,1.9-2.48,3.54-3.92,4.9-1.43,1.36-3.11,2.45-5.02,3.25-1.92.8-3.97,1.21-6.15,1.22-2.18,0-4.62-.48-7.31-1.49-2.69-1.01-5.49-2.56-8.37-4.67Z"/>
    <path class="cls-3" d="m684.65,910.91c-10.36-4.55-20.48-9.74-30.31-15.58,1.75-2.93,3.5-5.86,5.25-8.79,9.47,5.63,19.23,10.63,29.22,15.01,1.97.86,3.32,1.95,4.08,3.3.76,1.35.85,2.72.27,4.13-.58,1.41-1.63,2.31-3.15,2.69-1.52.38-3.32.14-5.36-.76Zm-24.16,32.34c-4.98-2.35-9.9-4.84-14.77-7.46,5.92-10.91,11.84-21.83,17.76-32.74,4.31,2.32,8.67,4.52,13.07,6.6-5.35,11.2-10.71,22.4-16.06,33.6Z"/>
    <path class="cls-3" d="m734,934.48c-4.57-1.04-9.12-2.2-13.64-3.46.66-2.31.39-4.21-.78-5.7-1.17-1.5-3.25-2.69-6.26-3.64-5.97-1.88-11.88-3.96-17.73-6.24,1.26-3.17,2.51-6.35,3.77-9.52,6.32,2.46,12.71,4.68,19.17,6.66,6.28,1.92,10.7,4.54,13.36,8.16,2.65,3.6,3.42,8.17,2.12,13.75Zm-37.49,23.2c-5.19-1.72-10.34-3.58-15.44-5.57,4.51-11.41,9.03-22.82,13.54-34.23,4.53,1.76,9.09,3.41,13.69,4.94-3.93,11.62-7.85,23.24-11.78,34.86Zm36.8-5.94c-1.05,4.73-3.66,8.06-7.96,9.85-4.29,1.79-9.78,1.84-16.27-.02-2.95-.85-5.9-1.74-8.83-2.68,1.05-3.24,2.11-6.49,3.16-9.73,2.2.7,4.41,1.38,6.63,2.03,4.53,1.33,7.25.35,8.1-2.79.4-1.47.19-2.69-.64-3.67-.83-.98-2.11-1.72-3.87-2.23-.5-.15-1-.29-1.5-.44-2.27-.67-3.88-1.66-4.83-2.92-.95-1.26-1.17-2.64-.68-4.13.49-1.49,1.48-2.48,2.97-2.98,1.48-.5,3.31-.42,5.5.23.79.23,1.58.47,2.37.69,5.89,1.69,10.2,4.05,13.02,7.31,2.81,3.25,3.81,7.05,2.83,11.46Z"/>
    <path class="cls-3" d="m759.62,951.45c2.88.38,5.76.72,8.64,1.01.59,3.48,1.22,6.95,1.88,10.42-5.02-.47-10.02-1.06-15.01-1.77-1.54,3.18-3.12,6.34-4.73,9.5-5.51-.84-11-1.81-16.46-2.93,6.81-11.12,13.14-22.43,19-33.89,4.52.74,9.06,1.37,13.61,1.89-2.22,5.28-4.53,10.53-6.93,15.76Zm20.39-27.42c3.54,16.84,7.96,33.61,13.24,50.26-5.53-.11-11.06-.37-16.58-.76-3.22-13.39-5.92-26.83-8.11-40.28-3.31-.36-6.62-.78-9.92-1.26-2.24-.32-3.89-1.05-4.94-2.15-1.05-1.1-1.43-2.42-1.16-3.97.27-1.55,1.08-2.67,2.41-3.39,1.33-.72,3.05-.92,5.18-.61,6.6.95,13.23,1.67,19.88,2.14Z"/>
    <path class="cls-3" d="m816.1,961.14c-5.21.26-10.43.4-15.64.4-.01-12.26-.03-24.53-.04-36.79,4.6,0,9.19-.12,13.79-.35.63,12.25,1.26,24.5,1.9,36.74Zm19.01,11.37c-11.51,1.22-23.07,1.84-34.63,1.86,0-3.41,0-6.81-.01-10.22,11.2-.01,22.4-.61,33.54-1.8,2.41-.26,4.34-.02,5.8.73,1.46.75,2.3,1.9,2.51,3.45.21,1.55-.31,2.87-1.56,3.95-1.26,1.08-3.14,1.76-5.63,2.03Z"/>
    <path class="cls-3" d="m863.72,955.11c-5.12,1.05-10.27,1.97-15.43,2.76-1.9-12.12-3.81-24.24-5.71-36.36,4.55-.7,9.09-1.51,13.6-2.43,2.51,12.01,5.03,24.02,7.54,36.03Zm20.6,8.35c-11.23,2.97-22.59,5.33-34.03,7.09-.53-3.37-1.06-6.73-1.59-10.1,11.08-1.7,22.09-3.99,32.96-6.86,2.36-.62,4.3-.69,5.86-.17,1.56.52,2.57,1.52,3.02,3.03.45,1.5.14,2.89-.94,4.15-1.08,1.26-2.84,2.22-5.28,2.87Z"/>
    <path class="cls-3" d="m938.36,933.13c1.56,3.17,3.11,6.34,4.67,9.51-3.92,1.9-7.68,3.05-11.22,3.47-3.55.42-6.64.16-9.27-.75-2.63-.9-4.87-2.27-6.73-4.08-1.86-1.81-3.28-4.01-4.29-6.58-1.43-3.63-2.85-7.26-4.28-10.89-1.01-2.57-1.48-5.13-1.46-7.68.02-2.55.54-5.01,1.51-7.39.98-2.38,2.59-4.61,4.81-6.74,2.23-2.13,4.97-3.96,8.27-5.56,1.56,3.17,3.11,6.34,4.67,9.51-2.27,1.1-3.74,2.69-4.41,4.83-.68,2.13-.3,4.82,1.18,8.06,1.33,2.92,2.66,5.84,3.99,8.77,1.48,3.25,3.29,5.3,5.49,6.11,2.19.81,4.57.62,7.08-.6Zm4.94-39.12c-1.98,3.37-4.05,6.71-6.2,10.03-2.54-1.5-5.43-1.38-8.78.3-1.6-3.15-3.19-6.3-4.79-9.45,4.07-2.04,7.74-3.18,11.11-3.35,3.37-.17,6.25.63,8.66,2.47Zm3.48,46.78c-1.6-3.15-3.19-6.3-4.79-9.45,2.12-1.06,3.68-2.2,4.67-3.38.99-1.18,1.54-2.5,1.64-3.96,4.29.21,8.63.33,13,.34-.81,6.29-5.66,12-14.52,16.46Z"/>
    <path class="cls-3" d="m977.37,906.71c-4.42,3.06-8.9,6-13.44,8.8-6.47-10.44-12.95-20.89-19.42-31.33,4.01-2.47,7.96-5.06,11.85-7.76,7.01,10.1,14.01,20.19,21.02,30.29Zm22.62-.75c-9.44,7.43-19.22,14.25-29.3,20.47-1.8-2.9-3.6-5.8-5.4-8.71,9.76-6.02,19.23-12.63,28.37-19.83,1.98-1.56,3.79-2.43,5.47-2.61,1.67-.17,3.01.34,4.01,1.55,1,1.21,1.24,2.63.71,4.25-.53,1.62-1.82,3.26-3.87,4.87Z"/>
    <path class="cls-3" d="m1023.07,872.35c2.49,2.47,4.98,4.94,7.47,7.41-2.69,2.74-5.4,4.88-8.06,6.42-2.67,1.54-5.14,2.49-7.41,2.86-2.26.37-4.45.3-6.54-.19-2.1-.5-3.96-1.33-5.61-2.46-1.65-1.14-3.2-2.57-4.67-4.29-6.55-7.64-13.11-15.27-19.66-22.91,3.65-3.15,7.23-6.42,10.74-9.8,6.83,7.16,13.67,14.31,20.5,21.47,2.59,2.72,4.96,4.15,7.11,4.26,2.15.11,4.21-.81,6.14-2.78Zm10.52,4.26c-2.52-2.44-5.05-4.87-7.57-7.31,1.91-2,2.78-4.11,2.62-6.28-.16-2.17-1.64-4.51-4.42-7.05-7.3-6.67-14.6-13.34-21.91-20.01,3.3-3.66,6.52-7.43,9.66-11.31,7.78,6.37,15.56,12.74,23.34,19.11,2.19,1.79,3.91,3.79,5.14,6,1.23,2.22,1.96,4.71,2.16,7.49.2,2.78-.43,5.87-1.93,9.21-1.5,3.35-3.86,6.76-7.09,10.14Z"/>
    <path class="cls-3" d="m1057.49,786.34c-2.5,4.78-5.1,9.44-7.8,14-2.06-1.23-4.01-1.37-5.86-.47-1.85.9-3.69,2.85-5.59,5.81-3.76,5.87-7.69,11.53-11.77,17-2.72-2.06-5.44-4.12-8.16-6.18,4.41-5.9,8.63-12.05,12.65-18.43,3.9-6.21,7.91-10.4,12.32-12.47,4.4-2.07,9.14-1.91,14.21.75Zm10.78,45.42c-3.35,5.04-6.81,9.94-10.37,14.71-9.77-7.4-19.55-14.81-29.32-22.21,3.16-4.23,6.23-8.58,9.19-13.04,10.17,6.85,20.34,13.69,30.5,20.54Zm5.99-40.86c4.31,2.19,6.75,5.81,7.13,10.91.38,5.08-1.34,11.05-5.26,17.56-1.78,2.96-3.6,5.87-5.46,8.75-2.85-1.87-5.71-3.73-8.56-5.6,1.39-2.16,2.77-4.34,4.12-6.55,2.76-4.52,2.67-7.68-.14-9.3-1.31-.77-2.58-.81-3.81-.15-1.23.66-2.37,1.87-3.44,3.63-.3.5-.61,1-.91,1.49-1.39,2.26-2.87,3.74-4.42,4.44-1.54.71-2.97.61-4.27-.25-1.31-.87-1.96-2.14-1.98-3.82-.02-1.68.65-3.59,1.99-5.77.48-.79.96-1.57,1.44-2.37,3.55-5.9,7.27-10.05,11.38-12.4,4.1-2.35,8.16-2.62,12.18-.57Z"/>
  </g>
  <g>
    <path class="cls-2" d="m476.8,642.45l-10.89-2.16c.22-4.06,1.72-7.45,4.51-10.18s6.39-4.09,10.82-4.09v10.67c-2.74.37-4.22,2.29-4.44,5.76Zm17.57,35.53h-26.95v-10.52h26.95c1.78,0,3.2.47,4.24,1.41s1.56,2.23,1.56,3.87-.52,2.92-1.56,3.85c-1.04.93-2.45,1.39-4.24,1.39Zm-11.04-13.2h-15.84c4.64-3.99,8.26-7.15,10.84-9.48,2.58-2.33,4.64-4.38,6.18-6.14,1.54-1.76,2.53-3.16,2.97-4.2s.66-2.17.66-3.39c0-1.39-.35-2.53-1.06-3.41-.71-.88-1.7-1.37-2.97-1.47v-10.67c4.69,0,8.48,1.41,11.37,4.24,2.88,2.82,4.33,6.31,4.33,10.47,0,1.56-.09,2.96-.27,4.18-.18,1.22-.56,2.46-1.14,3.72-.57,1.26-1.21,2.39-1.91,3.39-.7,1-1.74,2.22-3.14,3.67s-2.81,2.8-4.24,4.07c-1.43,1.27-3.36,2.95-5.78,5.02Z"/>
    <path class="cls-2" d="m522.53,668.01v10.89c-2.52,0-4.75-.4-6.69-1.21-1.94-.81-3.53-1.89-4.77-3.26-1.23-1.37-2.26-3.04-3.06-5.02-.81-1.98-1.37-4.04-1.69-6.18-.32-2.14-.48-4.48-.48-7.02v-7.52c0-2.54.16-4.88.48-7.02.32-2.14.88-4.19,1.69-6.16.81-1.97,1.83-3.64,3.06-5.01,1.23-1.37,2.82-2.46,4.77-3.26,1.94-.81,4.17-1.21,6.69-1.21v10.89c-.88,0-1.61.29-2.2.88s-1.04,1.47-1.36,2.66c-.32,1.19-.54,2.52-.68,4-.13,1.48-.2,3.25-.2,5.3v5.39c0,2.05.07,3.82.2,5.3.13,1.48.36,2.81.68,4,.32,1.19.77,2.08,1.36,2.68.59.6,1.32.9,2.2.9Zm3.01,10.89v-10.89c.86,0,1.58-.3,2.16-.9.59-.6,1.04-1.49,1.38-2.66.33-1.17.56-2.51.7-4,.13-1.49.2-3.26.2-5.32v-5.39c0-2.05-.07-3.82-.2-5.3-.13-1.48-.37-2.8-.7-3.98s-.79-2.06-1.38-2.66c-.59-.6-1.31-.9-2.16-.9v-10.89c2.49,0,4.71.4,6.66,1.21,1.94.81,3.53,1.89,4.77,3.25,1.23,1.36,2.25,3.02,3.04,4.99.79,1.97,1.36,4.03,1.69,6.18s.5,4.5.5,7.04v7.52c0,2.54-.17,4.89-.5,7.04-.33,2.15-.89,4.21-1.69,6.18-.79,1.97-1.81,3.64-3.04,5.01-1.23,1.37-2.82,2.46-4.77,3.26-1.94.81-4.16,1.21-6.66,1.21Z"/>
  </g>
  <g>
    <path class="cls-2" d="m1076.79,643.37l-10.89-2.16c.22-4.06,1.72-7.45,4.51-10.18s6.39-4.09,10.82-4.09v10.67c-2.74.37-4.22,2.29-4.44,5.76Zm17.57,35.53h-26.95v-10.52h26.95c1.78,0,3.2.47,4.24,1.41s1.56,2.23,1.56,3.87-.52,2.92-1.56,3.85c-1.04.93-2.45,1.39-4.24,1.39Zm-11.04-13.2h-15.84c4.64-3.99,8.26-7.15,10.84-9.48,2.58-2.33,4.64-4.38,6.18-6.14,1.54-1.76,2.53-3.16,2.97-4.2.44-1.04.66-2.17.66-3.39,0-1.39-.35-2.53-1.06-3.41-.71-.88-1.7-1.37-2.97-1.47v-10.67c4.69,0,8.48,1.41,11.37,4.24s4.33,6.31,4.33,10.47c0,1.56-.09,2.96-.27,4.18-.18,1.22-.56,2.46-1.14,3.72-.58,1.26-1.21,2.39-1.91,3.39-.7,1-1.74,2.22-3.14,3.67s-2.8,2.8-4.24,4.07c-1.43,1.27-3.36,2.95-5.78,5.02Z"/>
    <path class="cls-2" d="m1120.25,668.93v10.89c-4.52,0-8.24-1.17-11.15-3.52-2.91-2.35-4.55-5.49-4.91-9.42l11.4-2.86c0,1.37.44,2.53,1.32,3.48.88.95,1.99,1.43,3.34,1.43Zm12.62-30.58h-25.82v-10.52h25.82c1.83,0,3.27.48,4.31,1.43,1.04.95,1.56,2.24,1.56,3.85s-.52,2.86-1.56,3.81c-1.04.95-2.48,1.43-4.31,1.43Zm-9.61,41.48v-10.89c1.44,0,2.58-.5,3.41-1.5.83-1,1.25-2.36,1.25-4.07,0-2.1-.59-3.69-1.76-4.77-1.17-1.08-3.09-1.61-5.76-1.61h-13.35v-15.92h12.03v5.39h3.15c6.06,0,10.51,1.47,13.33,4.4,2.82,2.93,4.24,7,4.24,12.21s-1.47,9.09-4.42,12.16c-2.95,3.07-6.99,4.6-12.12,4.6Z"/>
  </g>
</svg>