<?xml version="1.0" encoding="UTF-8"?>
<svg id="Layer_1" data-name="Layer 1" xmlns="http://www.w3.org/2000/svg" viewBox="0 0 1741.59 1389.89">
  <defs>
    <style>
      .cls-1 {
        font-size: 85.73px;
      }

      .cls-1, .cls-2 {
        fill: #fff;
        font-family: eFootballStencil-Regular, 'eFootball Stencil';
      }

      .cls-3 {
        letter-spacing: -.04em;
      }

      .cls-2 {
        font-size: 104.03px;
      }

      .cls-4, .cls-5 {
        stroke-width: 0px;
      }

      .cls-5 {
        fill: #006838;
      }
    </style>
  </defs>
  <path class="cls-4" d="m809.26,274.88c101.54,0,203.08.21,304.62-.29,11.63-.06,14.64,2.97,14.6,14.45-.47,164.62.36,329.24-.91,493.85-.72,92.7-32.82,172.5-107.02,231.87-65.22,52.19-130.99,103.71-196.06,156.09-10.12,8.15-17.15,6.95-26.55-.28-59.3-45.64-118.17-91.82-176.54-138.67-35.44-28.44-68.59-58.66-91.56-98.47-25.73-44.58-37.51-93.29-38.34-144.15-2.73-166.65-1.69-333.33-1.58-500,0-11.37,3.19-14.54,14.73-14.49,101.54.48,203.08.28,304.62.28v-.2Zm1.65,33.48v.07c-88.72,0-177.45.13-266.17-.16-11.03-.04-15.85,1.69-15.79,14.91.74,157.44.71,314.88.91,472.33.02,20.01,1.31,39.91,5.67,59.52,13.78,61.93,49.58,109.25,98.18,148.09,54.04,43.19,108.35,86.06,161.91,129.84,11.43,9.34,19.21,9.92,30.79.41,53.45-43.9,107.17-87.51,161.55-130.25,67.74-53.24,102.23-121.16,101.56-208.42-1.23-158.46-.21-316.94.37-475.41.04-11.05-4.74-11.04-12.81-11.03-88.72.17-177.45.11-266.17.11Z"/>
  <path class="cls-5" d="m1075.71,335.67c.03-12.25-4.02-14.22-14.88-14.17-83.6.38-167.19.21-250.78.21v-.11c-84.11,0-168.22.07-252.32-.1-9.07-.02-15.02.06-14.96,12.55.67,156.42.09,312.84,1.32,469.25.56,70.99,30.17,129.94,83.49,176.48,56.75,49.55,116.94,94.89,175.48,142.25,7.65,6.18,11.37,2.65,16.64-1.61,55.85-45.06,111.98-89.78,167.54-135.2,59.27-48.45,88.47-111.47,88.44-187.98-.05-153.86-.35-307.71.03-461.57Zm-246.28,722.17c-14.13-10.87-26.95-12.08-40.8.3,6.59-17.55,5.49-31.61-10.85-42.57,14.43,1.21,23.25-3.08,26.11-16.92.46-2.23,1.92-5.03,5-5.13,3.04-.09,4.71,2.31,5.03,4.77,2.02,15.6,12,18.5,27.35,15.98-14,11.93-20.45,24.99-11.84,43.57Zm181.9-317.15c-4.06,7.11-7.99,14.25-15.05,21.41-4.54-23.87-23.28-34.13-40.3-45.95-3.78-2.62-7.02-4.5-12.38-1.43-15.97,9.14-32.35,17.59-48.9,25.65-8.49,4.13-8.52,6.83-.8,12.04,20.43,13.8,41.58,26.24,63.89,36.74,4.52,2.13,9.69,3.39,13.04,8.67-22.38,19.89-48.95,15.51-74.55,11.94-28.36-3.96-54.25-15.1-75.83-34.61-4.28-3.87-8.02-5.43-13.68-3.28-8.06,3.08-16.41,5.37-24.69,8.02,18.5,25.77,70.52,58.38,133.7,56.47-26.23,13.07-50.39,7.29-74.37.17-24.41-7.25-47.96-18.38-65.02-36.56-16.6-17.69-30.61-12.11-48.94-3.41,35.18,34.78,74.61,57.76,122.8,64.8-25.82,5.79-63.14-2.32-92.67-19.94-13.71-8.17-27.08-17.03-37.67-28.95-8.58-9.66-17.34-12.61-29.38-7.68-5.56,2.27-11.83,2.77-19.66,4.49,15.98,19.63,34.94,33.8,54.89,47.03-33.95-11.29-62.34-30.82-89.66-61.19,23.16,2.39,41.87-1.46,60.27-6.34,77.78-20.62,155.28-42.13,227.4-79.07,1.82-.93,3.68-1.94,5.64-2.42,9.84-2.43,16.04-15.9,26.93-12.08,19.32,6.77,37.42,16.66,53.02,30.35,4.95,4.35,5.27,9.37,1.97,15.13Zm-186.76-66.51c-9.91,29.17-26.82,36.94-51.41,30.12-16.08,1.54-29.43,2.09-42.51,4.29-12.42,2.1-20.21-.32-23.24-13.93-3.66-16.43-8.95-32.48-12.91-48.85-4.25-17.55,4.74-31.87,12.99-45.98,4.36-7.46,9.96-14.23,15.32-21.06,7.39-9.42,15.99-14.53,29.1-11.4,12.86,3.07,26.27,4.71,39.5,5.18,13,.45,20.13,7,26.25,17.44,23.81,40.6,21.99,39.81,6.91,84.19Zm22.77-46.87c5.2-17.12,7.46-17.77,23.31-10.8,10.77,4.73,21.4,9.85,32.42,13.94,24.62,9.13,30.21,29.85,33.04,52.44,1.08,7.01-3.38,10.61-8.62,13.09-19.87,9.42-39.54,19.42-59.96,27.49-15.14,5.99-25.41-7.62-37.25-13.45-9.55-4.71-1.73-13.13-.34-19.08,5.01-21.4,11.01-42.59,17.4-63.63Zm180.13,73.83c-4.07,7.93-7.39-.47-10.6-1.82-13.22-5.56-20.12-16.22-23.74-29.91-5.49-20.76-13.34-40.87-17.03-63.93-5.23,4.04-8.79,6.83-12.4,9.56-18.63,14.12-37.54,25.18-59.55,5.94-1.48-1.29-3.61-2.18-5.56-2.52-39.97-7.07-41.63-39.37-45.88-69.8-.9-6.45,2.65-11.73,6.32-16.85,7.16-10,15.36-19.56,20.64-30.5,5.39-11.16,11.71-11.64,21.99-8.06,15.83,5.5,32.12,9.7,48.21,14.46-21.61-19.98-62.46-26.33-88.51-14.34-16.74,7.7-32.9,16.66-50.53,22.5-12.36,4.1-23.29,3.92-35.25-2.66-16.2-8.91-29.89-21.85-47.28-28.59-3.53-1.37-7.71-5-11.26-.99-3.09,3.49,1.19,6.44,2.42,9.55,9.81,24.73.53,57.81-16.71,76.77-15.47,17-31.95,21.74-53.07,16.23-5.43-1.41-11.09-1.97-16.68-2.71-4.1-.54-9.18-1.14-10.4,3.82-1.03,4.22,4.06,5.55,6.95,7.15,18.57,10.28,34.57,23.43,48.97,39.14,5.69,6.21,8.74,12.01,9.27,19.98.65,9.71.34,19.79,2.92,29.01,8.82,31.44-9.68,54.87-22.03,80.18-3,6.14-7.33,3.5-11.7,1.77-20.71-8.23-43.72-12.44-54.48-36.2-14.27-31.51-23.37-63.98-14.57-98.27,2.71-10.57,2.1-21.07,4.45-31.15,19.44-83.27,74.84-131.89,155.27-150.69,90.73-21.2,170.33,1.77,234.85,71.28,9.85,10.62,9.74,23.57,10.46,35.94,2.02,34.78,2.43,69.58,11.63,103.64,3.29,12.18,7.77,22.48,19.61,27.32,9.3,3.79,5.74,9.94,3.27,14.75Zm3.16-21.36c1.25-34.3-3.54-67.63-12.51-100.45,14.8,32.21,17.38,65.98,12.51,100.45Z"/>
  <text class="cls-2" transform="translate(600.7 425.16)"><tspan x="0" y="0">FRANSKY</tspan></text>
  <text class="cls-1" transform="translate(776.92 959.32)"><tspan class="cls-3" x="0" y="0">1</tspan><tspan x="34.62" y="0">7</tspan></text>
</svg>