<?xml version="1.0" encoding="UTF-8"?>
<svg id="Layer_1" data-name="Layer 1" xmlns="http://www.w3.org/2000/svg" viewBox="0 0 1741.59 1389.89">
  <defs>
    <style>
      .cls-1 {
        font-size: 60.74px;
      }

      .cls-1, .cls-2 {
        fill: #fff;
        font-family: eFootballStencil-Regular, 'eFootball Stencil';
      }

      .cls-3, .cls-4 {
        stroke-width: 0px;
      }

      .cls-5 {
        letter-spacing: 0em;
      }

      .cls-2 {
        font-size: 104.77px;
      }

      .cls-4 {
        fill: #49070f;
      }
    </style>
  </defs>
  <path class="cls-4" d="m1116.47,384.07c.03-11.01-3.11-13.78-13.71-13.75-102.59.34-205.18.21-307.76.21v.51c-101.56,0-203.12.24-304.68-.29-13.46-.07-18.05,2.63-18.01,17.32.52,185.17.53,370.34-.18,555.51-.06,16.82,5.76,27.42,18.03,37.62,52.03,43.25,103.48,87.2,155.21,130.82,46.62,39.33,93.41,78.46,139.91,117.93,6.96,5.9,11.61,6.32,19.22.12,100.21-81.58,197.41-166.68,295.5-250.75,12.82-10.98,16.28-22.28,16.25-38.2-.38-185.68-.23-371.37.22-557.05Zm-551.86,558.73c0,8.05.56,16.38-4.51,24.42-9.68-4.38-11.28-12.04-11.6-19.73-.73-17.39-1.09-34.82-1.11-52.23-.08-88.16-.01-176.32.03-264.48,0-5.12.31-10.24.36-15.37.08-8.01,2.94-15.7,11.51-15.06,9.29.7,4.59,10,4.62,14.93.54,109.18.64,218.35.7,327.52Zm435.89,89.98c-64.59,55.41-129.36,110.61-193.89,166.08-7.2,6.18-12.01,7.76-20.45.54-64.22-54.99-129.02-109.32-193.61-163.89-3.13-2.64-6.31-5.34-8.88-8.49-2.56-3.14-9.71-5.49-4.92-10.76,3.83-4.21,7.31,1.27,10.13,3.59,58.23,47.74,116.85,95.01,174.29,143.68,32.34,27.41,31.25,28.24,64.06.68,54.16-45.5,108.57-90.72,162.98-135.93,6.46-5.38,13.58-9.96,20.39-14.91.77,10.22-4.81,14.88-10.1,19.41Zm-407.65-276.58c.04-3.96-2.84-10.42,4.12-11.19,6.06-.67,11.08,2.96,12.32,9.25,1.07,5.46,1.12,11.18,1.13,16.79.11,41.44-.47,82.88.4,124.3.3,14.39-1.5,26.12-18.14,33.46,0-26.58-.01-52.02,0-77.46,0-31.72-.09-63.44.17-95.15Zm38.3,193.42c6.83-7.61,15.1-14.22,20.53-22.68,6.81-10.6,12.13-9.86,19.55-1.38,2.94,3.35,7.09,5.63,11.41,8.95-25.04,27.03-49.87,53.44-74.16,80.33-5.54,6.13-8.06,1.2-10.83-1.61-4.76-4.8-15.48-8.07-7.18-17.77,13.28-15.52,27.03-30.64,40.68-45.84Zm83.18-262.64c15.07,4.07,29.01,2.77,43.7-.91,20.62-5.18,42.59-6.75,62.57-1.61,28.21,7.26,54.65,1.08,81.78-2.52,4.5-.59,9.01-1.07,14.63-1.73-1.43,13.09-9.74,19.37-19.03,24.68-6.59,3.77-9.25,7.64-2.7,13.97,6.89,6.66,9.13,31.71,2.99,39.24-9.11,11.18-7.91,26.75-6.08,36.63,4.06,21.92,2.34,40.04-11.19,57.43q-21.65-24.55-37.15,2.53c6.15,3.17,7.98-4.53,13.28-5.25,0,4.87.44,9.49-.07,14-3.6,31.74-12.61,36.18-40.32,20.09-22.18-12.87-23.1-23.86-3.32-40.97,3.49-3.02,7.71-5.29,10.75-8.67,3.12-3.47,10.36-5.64,7.3-11.84-2.29-4.62-8.42-7.15-13.29-5.73-15.46,4.52-30.41.93-45.54-1.18-6.01-.83-11.43.25-14.15,6.47-2.71,6.19,2.1,9.52,5.76,12.88,5.65,5.19,12.1,9.57,17.43,15.06,10.92,11.23,8.95,23.68-4.57,31.63-3.52,2.06-7.24,3.85-10.99,5.47-22.14,9.55-35.05-.26-32.55-24.67.05-.51.13-1.03.08-1.54-1.08-10.15,12.39-.65,12.22-8.91-.12-6.18-13.55-2.39-9.75-12.43,2.12-5.57,3.05-10.44-5.81-11.97-7.48-1.3-5.72-7.29-2.73-12.02,2.55-4.04,3.52-7.57-1.42-10.18-4.17-2.2-7.8-.69-11.2,2.25-9.91,8.54-3.59,18.81-2.26,29.06-14.14-8.92-16.85-21.76-6.71-35.78,5.31-7.33,8.58-12.36-1.13-18.08-4.64-2.73-6.21-7.39-2.46-11.72,5.4-6.24,8.2-17.88,18.96-15.34,20.31,4.79,28.99-3.43,33.09-22.61,2.12-9.89,10.84-15.93,22.13-15.54,7.68.27,10.39,4.8,10.27,11.62,20.66-11.08,41.96-19.74,69.42-15.05-9.98-11.61-20.91-12.53-30.78-14.13-31.37-5.09-62.19-2.73-92.28,8.44-21.62,8.03-32.96,23.01-32.91,45.39-7.72-6.25-9.76-24.43-2.23-30.33,10.41-8.17,7.34-12.76-2.58-17.13-10.4-4.58-19.95-10-22.99-24.49,14.89,1.82,28.82,1.98,41.83,5.49Zm149.06,215.64c.08-13.28,2.26-23.88,7.51-33.92,1.32,11.33,5.85,23.44-7.51,33.92Zm-150.06-166.05c.22-5.64,4.48-7.35,9.77-6.81,5.27.53,11.06,1.54,11.48,7.66.51,7.4-6.25,4.35-10.23,5.44-4.21-1.17-11.34,2.11-11.02-6.29Zm-45.29-11.7c7.1,2.58,3.74,9.63,4.74,14.84,6.56,33.89,2.1,68.73,9,102.57,2.07,10.14,5.49,19.68,13.25,27.14,1.8,1.73,4.34,4.26,4.17,6.22-2.18,25.37,18.98,31.16,34.5,41.65,4.61,3.12,9.41,5.97,18.33,11.58-8.17-17.01-2.7-20.95,9.68-20.19,3.26.2,7.14-1.41,9.96-3.34,13.86-9.51,28.12-8.52,42.3-1.63,9.04,4.39,18.01,7.17,27.77,4.23,3.9,6.08-4.39,9.25-1.59,15.52,15.79-4.28,28.17-15.27,42.13-22.93,5.83-3.21,2.72-11.37,2.75-17.33.03-6.56-.62-13.13-1.13-22.71,11.35,13,15.68,3.89,19.75-3.7,10.38-19.39,9.75-40.68,8.76-61.62-1.04-22.11,9.89-42.81,6.48-65.08-.66-4.26,2.68-5.81,6.69-6.73,7.46-1.73,14.75-4.12,22.1-6.3,2.73-.81,5.91-3.78,7.99-.02,1.66,2.99-.43,6.74-3.05,7.92-19.89,9.05-17.1,27.75-21.61,44.56-5.47,20.36-3.09,40.52-5.12,60.67-1.8,17.77-5.28,34.4-17.98,47.86-1.38,1.46-3.64,3.24-3.56,4.78,1.23,24.14-18.44,30.57-33.93,40.59-9.03,5.84-17.53,12.7-27.1,17.39-4.93,2.41-11.55,16.61-18,.14-1.28-3.28-6.05,1.5-9.02,2.75-14,5.91-27.77,9.79-41.93.29-3.64-2.44-7.82-5.46-10.2,2.38-1.18,3.9-4.89,1.51-7.57-.11-19.73-11.88-39.47-23.73-59.29-35.45-3.67-2.16-6.69-4.67-8.16-8.72-13.77-37.87-32.35-74.05-25.99-117.29,1.89-12.88-5.48-28.48-5.77-43.33-.11-5.45-5.11-7.01-8.98-9.51-5.35-3.45-12.6-4.76-15.71-13.48,12.97-.93,24.32,2.39,35.34,6.39Zm180.24,372.83c-.34,19.3-8.82,29.86-28.35,30.56-9.33.34-14.61,3.53-17.65,11.29-3.42,8.76-7.85,7.93-13.31,2.24-5.32-5.54-10.56-11.16-15.81-16.77-2.03-2.17-3.95-7.2-6.38-5.74-18.62,11.27-11.95-7.61-13.56-12.53-3.26-9.95-3.39-20.93-4.67-30.45-8.46,7.49-17.46,14.75-25.54,22.91-4.37,4.42-7.15,8.71-13.17,2.21-5.12-5.52-10.61-9.96-2.42-17.57,12.38-11.5,24.15-23.66,36.26-35.47,1.4-1.36,4.88-2.8,4.72-3.26-9.19-25.86,20.29-20.46,26.27-37.31,11.51,27.42,14.45,29.51,33.56,23.41,15.01-4.79-.14-15.49,4.02-22.92,5.7.38,7.79,5.42,10.37,9.37,5.87,9.03,8.71,21.66,24.06,18.3.94-.2,3.35,1.61,3.33,2.46-.33,22.6,21.16,29.92,31.56,44.95,4.26,6.15,9.65,10.12,1.52,17.63-9.16,8.47-11.55.64-16.08-4.69-4.59-5.39-9.09-11.13-16.16-14.29-5.29,4.53-2.48,10.51-2.57,15.67Zm-181.83-39.82c-5.6,6.22-9,3.52-11.77-.87-3.15-4.98-16.22-6.73-8.37-15.4,24.97-27.58,51.02-54.2,76.69-81.15,1.29-1.36,2.99-2.34,4.99-3.88,6.11,4.57,13.02,7.87,16.94,13.33,2.51,3.48-3.79,7.41-6.71,10.57-23.89,25.84-48.22,51.27-71.77,77.4Zm184.37-78.56c-3.05-3.26-10.05-7.53-1.59-11.23,6.42-2.81,10.14-17.34,20.85-5.78,23.23,25.06,46.71,49.9,70,74.91,2.65,2.85,6.5,5.12,6.41,10.1-4.07,5.84-9.18,11.05-15.48,14.21-5.18,2.59-6.23-3.91-8.74-6.53-23.94-25.11-47.72-50.37-71.45-75.68Zm65.31-36.48c-2.66-2.98-10.05-5.44-6.42-9.99,4.9-6.16,12.37-10.27,19.01-15.46,1.97,1.7,3.74,2.77,4.92,4.3,19.48,25.16,43.93,45.73,64.5,69.88,4.19,4.92,10.47,9.35,1.48,15.92-7.05,5.15-11.15,10.54-20.69.54-20.82-21.82-42.69-42.67-62.8-65.19Zm79.5-14.41c-13.57-8.45-17.35-18.24-17.11-31.26.84-44.08.76-88.17,1.11-132.26.03-4.08.09-8.3,1.11-12.21,1.41-5.42,6.85-6.07,11.16-6.52,4.45-.47,3.69,3.88,3.7,6.74.04,57.79.03,115.59.03,175.51Zm45.85-309.98c-.34,106.57-.69,213.15-1.18,319.73-.05,10.48.87,21.8-13.8,28.6-.8-10.76-2-19.38-1.98-28.01.18-110.15.5-220.31,1.01-330.47.02-3.3-3.47-9.28,2.89-9.93,5.18-.53,10.07,3.12,12.08,7.94,1.49,3.56.99,8.06.98,12.14Zm50.07,320.17c.01,9.88-2.2,17.86-9.3,24.78-10.27,10.02-20.13,20.46-30.32,30.56-2.05,2.03-4.88,5.36-7.78,3-3.75-3.04-.69-6.47,1.47-9.29,5.61-7.31,10.85-14.98,17.07-21.74,10.77-11.69,13.38-25.01,13.34-40.71-.38-163.6-.37-327.22.42-490.82.08-16.1-4.48-18.95-19.52-18.89-176.43.72-352.86.8-529.29.58-11.28-.01-14.64,2.31-14.6,14.19.55,165.66.72,331.31.36,496.97-.04,17.73,5.61,31.67,17.18,44.29,6.34,6.92,12.91,13.99,15.49,25.68-14.87-4.58-20.21-17.42-30.01-24.76-14.88-11.16-18.7-25.74-18.62-44.18.71-169.76.75-339.52.21-509.28-.05-15.61,5.24-18.54,19.23-18.5,142.58.4,285.16.22,427.74.25,43.59.01,87.19.49,130.78.03,12.2-.12,16.53,3.11,16.49,16.24-.52,173.87-.51,347.73-.34,521.6Z"/>
  <path class="cls-4" d="m786.44,729.01c-18.12,15.86-15.59,37.57-15.19,57.98.27,13.73-4.4,15.24-16,12.19-13-3.42-25.74-6.64-35.15-17.14-3.73-4.16-8.04-7.71-5.49-14.62,2.62-7.09,8.42-8.04,13.69-6.57,22.35,6.24,35.54-.03,39.48-24.37,1.64-10.11,13.73-1.49,19.08-6.99,0-.01-.41-.47-.41-.47Z"/>
  <path class="cls-4" d="m817.33,753.22c8.06,10.69,16.75,12.82,28.88,7.85,8.93-3.66,16.54,3.26,23.81,7.78,6.04,3.75,2.5,7.64-.7,11.21-11.61,12.92-27.37,17.13-43.44,20.73-3.62.81-5.87.28-6.1-4.04-.75-14.51-1.63-29.02-2.46-43.52Z"/>
  <path class="cls-3" d="m668.66,489.99c1.5,12.25,2.58,20.2,3.38,28.17.27,2.71-.75,5.09-4.17,4.85-3.42-.24-4.19-2.75-3.35-5.35,2.5-7.78-1.43-16.2,4.15-27.67Z"/>
  <path class="cls-3" d="m607.25,617.01c2.21-4.57-5.6-15.88,4.69-16.05,9.85-.17,4.03,11.34,5.68,17.52.38,1.42.17,3.09-.12,4.57-.98,5.02,2.29,13.7-5.74,13.42-8.05-.28-3.07-8.85-4.44-13.57-.41-1.42-.06-3.05-.06-5.89Z"/>
  <text class="cls-2" transform="translate(547.42 572.48)"><tspan x="0" y="0">HIGENYI25</tspan></text>
  <text class="cls-1" transform="translate(592.3 646.85)"><tspan x="0" y="0">FOOTBALL C</tspan><tspan class="cls-5" x="307.76" y="0">L</tspan><tspan x="336.74" y="0">UB</tspan></text>
</svg>