<?xml version="1.0" encoding="UTF-8"?>
<svg id="Layer_1" data-name="Layer 1" xmlns="http://www.w3.org/2000/svg" xmlns:xlink="http://www.w3.org/1999/xlink" viewBox="0 0 1741.59 1389.89">
  <defs>
    <style>
      .cls-1 {
        fill: url(#linear-gradient);
      }

      .cls-1, .cls-2, .cls-3, .cls-4, .cls-5, .cls-6, .cls-7, .cls-8, .cls-9, .cls-10, .cls-11, .cls-12, .cls-13, .cls-14 {
        stroke-width: 0px;
      }

      .cls-2 {
        fill: url(#linear-gradient-11);
      }

      .cls-3 {
        fill: url(#linear-gradient-12);
      }

      .cls-4 {
        fill: url(#linear-gradient-13);
      }

      .cls-5 {
        fill: url(#linear-gradient-10);
      }

      .cls-6 {
        fill: url(#linear-gradient-4);
      }

      .cls-7 {
        fill: url(#linear-gradient-2);
      }

      .cls-8 {
        fill: url(#linear-gradient-3);
      }

      .cls-9 {
        fill: url(#linear-gradient-8);
      }

      .cls-10 {
        fill: url(#linear-gradient-9);
      }

      .cls-11 {
        fill: url(#linear-gradient-7);
      }

      .cls-12 {
        fill: url(#linear-gradient-5);
      }

      .cls-13 {
        fill: url(#linear-gradient-6);
      }

      .cls-14 {
        fill: #fff;
      }
    </style>
    <linearGradient id="linear-gradient" x1="887.94" y1="430.18" x2="452.58" y2="1182.59" gradientTransform="translate(68.72 -58.85) rotate(5.04)" gradientUnits="userSpaceOnUse">
      <stop offset="0" stop-color="#000"/>
      <stop offset="1" stop-color="#001e94"/>
    </linearGradient>
    <linearGradient id="linear-gradient-2" x1="879.25" y1="445.2" x2="464.29" y2="1162.36" gradientTransform="translate(68.71 -58.85) rotate(5.04)" gradientUnits="userSpaceOnUse">
      <stop offset="0" stop-color="#00aa56"/>
      <stop offset="1" stop-color="#00204d"/>
    </linearGradient>
    <linearGradient id="linear-gradient-3" x1="714.03" y1="1169.8" x2="696.71" y2="650.4" gradientUnits="userSpaceOnUse">
      <stop offset="0" stop-color="#b68000"/>
      <stop offset="1" stop-color="#f8c74a"/>
    </linearGradient>
    <linearGradient id="linear-gradient-4" x1="726.19" y1="1151.1" x2="682.33" y2="550.91" xlink:href="#linear-gradient-3"/>
    <linearGradient id="linear-gradient-5" x1="714.22" y1="1169.8" x2="696.9" y2="650.4" gradientUnits="userSpaceOnUse">
      <stop offset="0" stop-color="#c08f2f"/>
      <stop offset="1" stop-color="#b68000"/>
    </linearGradient>
    <linearGradient id="linear-gradient-6" x1="692.85" y1="510.83" x2="705.8" y2="472" xlink:href="#linear-gradient-3"/>
    <linearGradient id="linear-gradient-7" x1="622.88" y1="512.23" x2="633.11" y2="481.55" xlink:href="#linear-gradient-3"/>
    <linearGradient id="linear-gradient-8" x1="767.16" y1="512.23" x2="777.39" y2="481.55" xlink:href="#linear-gradient-3"/>
    <linearGradient id="linear-gradient-9" x1="566.63" y1="511.06" x2="573.44" y2="490.63" xlink:href="#linear-gradient-3"/>
    <linearGradient id="linear-gradient-10" x1="828.25" y1="511.06" x2="835.06" y2="490.63" xlink:href="#linear-gradient-3"/>
    <linearGradient id="linear-gradient-11" x1="496.68" y1="922.45" x2="498.25" y2="680.04" xlink:href="#linear-gradient-3"/>
    <linearGradient id="linear-gradient-12" x1="907.61" y1="923.13" x2="909.19" y2="679.04" xlink:href="#linear-gradient-3"/>
    <linearGradient id="linear-gradient-13" x1="718.4" y1="574.64" x2="718.4" y2="531.14" xlink:href="#linear-gradient-3"/>
  </defs>
  <ellipse class="cls-1" cx="702.49" cy="750.7" rx="353.97" ry="390.73" transform="translate(-63.28 64.66) rotate(-5.04)"/>
  <ellipse class="cls-7" cx="702.49" cy="750.7" rx="337.39" ry="372.42" transform="translate(-63.27 64.66) rotate(-5.04)"/>
  <g>
    <path class="cls-8" d="m580.55,701.48c.18-.18,19.06-19.38,54.29-37.24.5-.25,1.06-.25,1.51.02l8.55-16.8c-33.38,10.89-62.57,31.06-84.54,57.45l19.74-2.08c-.07-.47.09-.97.45-1.35Zm120.27-27.36c-32.01-6.74-56.95-8.1-63.52-8.32-.02.61-.36,1.15-.92,1.44-34.69,17.59-53.21,36.41-53.41,36.61-.32.34-.77.5-1.2.5-.25,0-.52-.05-.74-.18-7.4,15.99-13.17,52.71-14.39,60.95.07-.02.14,0,.2.02l60.02,17.46c.38.11.7.36.9.68l73.33-50.44c-.18-.27-.29-.59-.29-.95v-57.43c0-.11.02-.23.02-.34Zm68.41-9.88c.34.18,35.68,18.77,56.44,37.15.43.38.61.92.54,1.44l18.2,1.83c-21.95-26.26-51.07-46.33-84.34-57.2l7.67,16.76c.45-.23.99-.23,1.49.02Zm-220.33,233.41c-14.8-38.26-17.01-66.38-17.03-66.65-.02-.43.11-.83.36-1.15l-14.64-11.75c-.07,1.74-.09,3.47-.09,5.21,0,35.14,9.79,68.01,26.82,95.98l5.71-20.62c-.5-.13-.92-.52-1.13-1.01Zm154.99-164.8l72.9,50.39c.2-.32.52-.56.92-.68l60.02-16.92c.14-.05.27-.07.41-.07-.63-17.95-10.8-53.41-13.13-61.33-.16.07-.32.09-.47.09-.41,0-.79-.14-1.13-.41-20.44-18.14-55.4-36.52-55.76-36.7-.59-.32-.92-.92-.9-1.56-18.02-.38-54.47,6.79-62.62,8.44.02.11.05.23.05.34v57.43c0,.36-.11.7-.29.97Zm183.52,85.71l-14.05,11.26c.29.38.43.86.34,1.38-.41,2.08-9.9,51.23-19.17,66.7-.23.38-.56.63-.95.74l6.83,21.05c17.17-28.06,27.07-61.06,27.07-96.38,0-1.58-.02-3.16-.07-4.74Zm-138.81,55.33c-.2-.29-.32-.63-.32-.97h-92.01c0,.34-.09.7-.32.99l-40.51,55.4c-.13.16-.27.32-.45.41,10.71,16.06,42.9,46.11,49.62,52.31.29-.36.77-.59,1.33-.54.61.05,60.9,3.05,71.8.07.74-.2,1.49.11,1.89.74,10.08-7.02,42.36-43.87,48.72-51.18-.11-.09-.2-.2-.29-.32l-39.47-56.91Zm-94.53-2.57l-27.16-85.51c-.16.07-.34.09-.52.09-.16,0-.32-.02-.47-.07l-60-17.44c-.25-.07-.47-.2-.65-.41-11.89,13.33-27.83,53.01-31.11,61.33.59.23,1.04.74,1.08,1.42.02.27,2.23,27.92,16.83,65.68.23.56.11,1.17-.25,1.62,18.54,14.14,52.96,26.93,60.68,29.68.05-.16.14-.29.23-.43l40.51-55.38c.2-.29.5-.5.83-.61Zm197.55,24.84c8.98-14.95,18.68-65.1,18.77-65.62.11-.61.56-1.08,1.13-1.29-6.23-18.72-27.7-53.12-32.41-60.54-.13.07-.29.14-.45.18l-60,16.94c-.16.05-.32.07-.45.07-.18,0-.36-.02-.52-.09l-27.18,85.51c.34.09.65.32.88.63l39.5,56.93c.09.14.16.27.2.43,17.98-6.25,53.1-26.95,60.56-31.42-.34-.5-.36-1.17-.02-1.74Zm-112.99,88.67c-3.92,1.06-13.49,1.42-24.45,1.42-20.86,0-46.76-1.29-48.38-1.38-.54-.02-1.02-.29-1.29-.7l-20.08,14.8c18.25,6.05,37.78,9.32,58.06,9.32s39.79-3.27,58.04-9.32l-20.95-14.8c-.23.32-.56.54-.95.65Z"/>
    <path class="cls-6" d="m535.23,830.75c-.05-.68-.5-1.2-1.08-1.42-.41,1.02-.61,1.56-.61,1.56l-1.31-1.04c-.25.32-.38.72-.36,1.15.02.27,2.23,28.4,17.03,66.65.2.5.63.88,1.13,1.01l.45-1.62c.43.34.88.7,1.33,1.02.36-.45.47-1.06.25-1.62-14.59-37.76-16.8-65.41-16.83-65.68Zm45.79-126.59c.23.13.5.18.74.18.43,0,.88-.16,1.2-.5.2-.2,18.72-19.01,53.41-36.61.56-.29.9-.83.92-1.44-1.11-.07-1.69-.07-1.69-.07l.74-1.47c-.45-.27-1.02-.27-1.51-.02-35.23,17.86-54.11,37.06-54.29,37.24-.36.38-.52.88-.45,1.35l1.67-.18c-.25.47-.5.99-.74,1.51Zm121.47,27.72l1.4.97c.18-.27.29-.61.29-.97v-57.43c0-.11-.02-.23-.05-.34-1.06.23-1.65.34-1.65.34-.56-.11-1.13-.25-1.67-.34,0,.11-.02.23-.02.34v57.43c0,.36.11.68.29.95l1.4-.95Zm-76.11,54.02c.18,0,.36-.02.52-.09l-.52-1.6,1.38-.95c-.2-.32-.52-.56-.9-.68l-60.02-17.46c-.07-.02-.13-.05-.2-.02-.16,1.08-.25,1.67-.25,1.67-.38.38-.77.79-1.13,1.22.18.2.41.34.65.41l60,17.44c.16.05.32.07.47.07Zm141.27-118.67c.36.18,35.32,18.56,55.76,36.7.34.27.72.41,1.13.41.16,0,.32-.02.47-.09-.29-1.04-.47-1.6-.47-1.6l1.67.18c.07-.52-.11-1.06-.54-1.44-20.75-18.38-56.1-36.97-56.44-37.15-.5-.25-1.04-.25-1.49-.02l.7,1.51c-.54-.02-1.11-.05-1.69-.05-.02.63.32,1.24.9,1.56Zm105.7,162.59l-1.33,1.06c-.16-.52-.34-1.06-.52-1.62-.56.2-1.02.68-1.13,1.29-.09.52-9.79,50.66-18.77,65.62-.34.56-.32,1.24.02,1.74.92-.56,1.42-.86,1.42-.86l.52,1.6c.38-.11.72-.36.95-.74,9.27-15.47,18.77-64.62,19.17-66.7.09-.52-.05-.99-.34-1.38Zm-35.21-64.24c-.14,0-.27.02-.41.07l-60.02,16.92c-.41.11-.72.36-.92.68l1.4.97-.52,1.6c.16.07.34.09.52.09.14,0,.29-.02.45-.07l60-16.94c.16-.05.32-.11.45-.18-.59-.95-.9-1.44-.9-1.44,0-.54,0-1.11-.04-1.69Zm-86.77,106.38c-.23-.32-.54-.54-.88-.63l-.52,1.6h-1.69c0,.34.11.68.32.97l39.47,56.91c.09.11.18.23.29.32.72-.81,1.11-1.26,1.11-1.26.52-.16,1.04-.34,1.6-.54-.05-.16-.11-.29-.2-.43l-39.5-56.93Zm-13.62,109.6c-10.89,2.98-71.19-.02-71.8-.07-.56-.04-1.04.18-1.33.54.81.74,1.24,1.15,1.24,1.15l-1.35.99c.27.41.74.68,1.29.7,1.62.09,27.52,1.38,48.38,1.38,10.96,0,20.53-.36,24.45-1.42.38-.11.72-.34.95-.65l-1.4-.99c.41-.2.9-.5,1.47-.88-.41-.63-1.15-.95-1.89-.74Zm-83.68-110.23c-.34.11-.63.32-.83.61l-40.51,55.38c-.09.14-.18.27-.23.43,1.02.38,1.58.56,1.58.56.29.45.59.92.92,1.42.18-.09.32-.25.45-.41l40.51-55.4c.23-.29.32-.65.32-.99h-1.69l-.52-1.6Z"/>
    <path class="cls-12" d="m700.82,674.12c.16-.77.83-1.35,1.67-1.35s1.49.59,1.65,1.35c8.14-1.65,44.59-8.82,62.62-8.44.59,0,1.15.02,1.69.05l-.7-1.51-7.67-16.76c-18.11-5.95-37.49-9.16-57.59-9.16s-39.47,3.2-57.59,9.16l-8.55,16.8-.74,1.47s.59,0,1.69.07c6.56.23,31.51,1.58,63.52,8.32Zm-46.76,197.21l.52,1.6h95.39l.52-1.6,27.18-85.51.52-1.6-1.4-.97-72.9-50.39-1.4-.97-1.4.95-73.33,50.44-1.38.95.52,1.6,27.16,85.51Zm48.43-198.56c-.83,0-1.51.59-1.67,1.35.54.09,1.11.23,1.67.34,0,0,.59-.11,1.65-.34-.16-.77-.83-1.35-1.65-1.35Zm141.92,31.9l-18.2-1.83-1.67-.18s.18.56.47,1.6c2.32,7.92,12.5,43.38,13.13,61.33.04.59.04,1.15.04,1.69,0,0,.32.5.9,1.44,4.71,7.42,26.19,41.82,32.41,60.54.18.56.36,1.11.52,1.62l1.33-1.06,14.05-11.26c-1.08-43.31-17.05-82.92-42.99-113.91Zm-278.03,62.12s.09-.59.25-1.67c1.22-8.23,6.99-44.95,14.39-60.95.25-.52.5-1.04.74-1.51l-1.67.18-19.74,2.08h-.02c-25.71,30.83-41.57,70.17-42.74,113.19l14.64,11.75,1.31,1.04s.2-.54.61-1.56c3.27-8.32,19.22-48,31.11-61.33.36-.43.74-.83,1.13-1.22Zm286.67,130.26s-.5.29-1.42.86c-7.47,4.47-42.59,25.17-60.56,31.42-.56.2-1.08.38-1.6.54,0,0-.38.45-1.11,1.26-6.36,7.31-38.64,44.17-48.72,51.18-.56.38-1.06.68-1.47.88l1.4.99,20.95,14.8c41.95-13.83,77.23-42.27,99.88-79.29l-6.83-21.05-.52-1.6Zm-238.06,32.68c-.34-.5-.63-.97-.92-1.42,0,0-.56-.18-1.58-.56-7.71-2.75-42.14-15.54-60.68-29.68-.45-.32-.9-.68-1.33-1.02l-.45,1.62-5.71,20.62c22.62,37.22,58.01,65.82,100.11,79.69l20.08-14.8,1.35-.99s-.43-.41-1.24-1.15c-6.72-6.2-38.91-36.25-49.62-52.31Z"/>
  </g>
  <g>
    <polygon class="cls-13" points="702.45 463.36 710.24 479.14 727.65 481.67 715.05 493.96 718.03 511.31 702.45 503.12 686.87 511.31 689.84 493.96 677.24 481.67 694.66 479.14 702.45 463.36"/>
    <polygon class="cls-11" points="630.46 474.73 636.61 487.19 650.37 489.19 640.42 498.9 642.77 512.6 630.46 506.13 618.15 512.6 620.5 498.9 610.55 489.19 624.3 487.19 630.46 474.73"/>
    <polygon class="cls-9" points="774.74 474.73 780.9 487.19 794.66 489.19 784.7 498.9 787.05 512.6 774.74 506.13 762.43 512.6 764.79 498.9 754.83 489.19 768.59 487.19 774.74 474.73"/>
    <polygon class="cls-10" points="571.68 486.09 575.78 494.39 584.94 495.72 578.31 502.18 579.87 511.31 571.68 507 563.49 511.31 565.05 502.18 558.42 495.72 567.58 494.39 571.68 486.09"/>
    <polygon class="cls-5" points="833.3 486.09 837.39 494.39 846.55 495.72 839.92 502.18 841.49 511.31 833.3 507 825.1 511.31 826.67 502.18 820.04 495.72 829.2 494.39 833.3 486.09"/>
  </g>
  <g>
    <path class="cls-2" d="m505.34,823.3c0-26.37,5.22-51.52,14.62-74.51-75.06-5.14-99.62-67.78-99.62-67.78,0,0-11.25,72.92,31.7,121.82,0,0-27.01-18.64-36.88-39.05,0,0,2.3,85.34,66.58,135.85,0,0-25.47-7.26-33.22-14.67,0,0,40.58,63.32,130.36,91.87-44.83-36.14-73.54-91.47-73.54-153.54Z"/>
    <path class="cls-3" d="m989.82,763.78c-9.87,20.42-36.88,39.05-36.88,39.05,42.95-48.91,31.7-121.82,31.7-121.82,0,0-24.56,62.63-99.61,67.78,9.4,22.99,14.61,48.14,14.61,74.51,0,62.07-28.71,117.4-73.54,153.54,89.78-28.55,130.36-91.87,130.36-91.87-7.75,7.41-33.22,14.67-33.22,14.67,64.28-50.51,66.58-135.85,66.58-135.85Z"/>
  </g>
  <g>
    <path class="cls-14" d="m585.95,1054.56c-1.82-.83-3.41-1.93-4.79-3.29-1.37-1.36-2.34-2.76-2.9-4.18l3.3-3.26c.54,1.28,1.37,2.53,2.48,3.73,1.11,1.2,2.39,2.13,3.83,2.79,1.22.56,2.28.85,3.17.88s1.64-.14,2.24-.51c.6-.37,1.05-.9,1.36-1.57.38-.83.43-1.62.15-2.36-.28-.74-.75-1.44-1.43-2.11-.67-.67-1.45-1.35-2.32-2.05-.87-.7-1.72-1.45-2.54-2.27-.82-.81-1.51-1.69-2.08-2.62-.57-.93-.88-1.98-.96-3.15s.23-2.48.89-3.94c.68-1.49,1.64-2.69,2.88-3.62s2.72-1.45,4.45-1.56,3.65.32,5.78,1.29c1.4.64,2.69,1.48,3.87,2.52,1.18,1.04,2.11,2.19,2.77,3.44l-3.16,3.32c-.71-1.2-1.54-2.24-2.49-3.09-.95-.86-1.93-1.52-2.95-1.98-1.17-.54-2.22-.81-3.12-.81s-1.66.19-2.26.6c-.6.4-1.05.94-1.36,1.62-.38.83-.44,1.62-.17,2.35.27.74.74,1.43,1.42,2.09.68.66,1.46,1.34,2.34,2.06.88.72,1.73,1.47,2.54,2.27.82.8,1.5,1.66,2.07,2.6.56.93.89,1.98.96,3.13.08,1.15-.21,2.45-.86,3.88-.67,1.46-1.62,2.65-2.86,3.58-1.24.93-2.73,1.45-4.46,1.55-1.74.11-3.67-.33-5.8-1.3Z"/>
    <path class="cls-14" d="m604.49,1061.92l10.62-28.12,4.45,1.68-10.62,28.12-4.45-1.68Z"/>
    <path class="cls-14" d="m620.27,1067.75l8.21-28.91,3.76,1.07,9.1,26.69-1.86-.53,6.33-22.3,4.5,1.28-8.21,28.91-3.76-1.07-9.07-26.68,1.86.53-6.33,22.3-4.54-1.29Z"/>
    <path class="cls-14" d="m666.24,1078.9c-1.95-.31-3.68-.96-5.2-1.97s-2.78-2.3-3.78-3.88c-1-1.58-1.69-3.34-2.08-5.28-.39-1.94-.4-4.03-.05-6.27.35-2.23,1.01-4.22,1.97-5.95s2.17-3.19,3.61-4.39c1.45-1.19,3.04-2.04,4.8-2.53s3.61-.58,5.56-.28c2.07.33,3.89,1.04,5.47,2.14,1.58,1.1,2.83,2.57,3.75,4.39l-3.56,2.87c-.76-1.31-1.66-2.34-2.7-3.1-1.04-.76-2.21-1.24-3.51-1.44-1.32-.21-2.57-.14-3.75.19-1.18.34-2.24.91-3.19,1.72-.95.81-1.76,1.81-2.42,3.01-.66,1.2-1.11,2.56-1.35,4.09-.24,1.53-.23,2.96.03,4.31.26,1.34.72,2.55,1.38,3.61.66,1.06,1.5,1.93,2.51,2.61,1.02.68,2.19,1.12,3.51,1.33,1.3.2,2.56.11,3.78-.3,1.22-.4,2.4-1.12,3.52-2.16l2.51,3.83c-1.44,1.46-3.08,2.47-4.92,3.05-1.84.58-3.81.71-5.91.38Z"/>
    <path class="cls-14" d="m691.66,1076.32l14.43.52-.17,4.72-19.18-.69,1.08-30.04,18.67.67-.17,4.72-13.92-.5-.74,20.6Zm.1-12.84l12.71.46-.17,4.59-12.71-.46.17-4.59Z"/>
    <path class="cls-14" d="m729.57,1080.32l-.5-3.7,8.58-12.61c.69-1.05,1.2-1.95,1.51-2.72s.5-1.46.56-2.09.06-1.21-.02-1.75c-.19-1.36-.73-2.36-1.64-3s-2.15-.86-3.72-.64c-1.21.16-2.28.57-3.21,1.22s-1.69,1.53-2.28,2.65l-3.7-2.49c.78-1.69,1.95-3.09,3.51-4.18,1.56-1.09,3.38-1.78,5.46-2.06,1.83-.25,3.48-.12,4.92.39,1.45.51,2.63,1.35,3.55,2.53.92,1.17,1.5,2.63,1.74,4.36.13.99.16,1.98.07,2.96-.09.98-.36,2.04-.82,3.19-.46,1.15-1.18,2.45-2.16,3.91l-7.39,10.8-1.26-1.95,14.85-2.02.64,4.68-18.69,2.54Z"/>
    <path class="cls-14" d="m767.06,1074.04c-1.99.5-3.9.36-5.76-.41-1.85-.77-3.52-2.16-4.99-4.17-1.47-2.01-2.61-4.61-3.41-7.8-.8-3.19-1.03-6.02-.68-8.48.35-2.46,1.16-4.47,2.42-6.03,1.27-1.56,2.89-2.59,4.88-3.09,1.96-.49,3.87-.35,5.72.42,1.85.77,3.52,2.16,4.99,4.17s2.61,4.61,3.41,7.8c.8,3.19,1.03,6.02.68,8.48-.35,2.46-1.16,4.47-2.42,6.03-1.27,1.56-2.88,2.58-4.84,3.08Zm-1.18-4.71c1.13-.29,2.04-.9,2.7-1.85.67-.95,1.05-2.25,1.15-3.9.1-1.65-.14-3.64-.73-5.97-.59-2.33-1.31-4.2-2.18-5.61-.87-1.4-1.82-2.37-2.86-2.89-1.04-.52-2.12-.64-3.25-.36-1.13.29-2.04.91-2.72,1.86s-1.07,2.25-1.18,3.91c-.11,1.65.12,3.64.71,5.98.59,2.33,1.32,4.2,2.2,5.6s1.84,2.36,2.89,2.88c1.05.52,2.14.64,3.27.35Z"/>
    <path class="cls-14" d="m785.39,1068.43l-1.29-3.51,5.66-14.16c.45-1.17.75-2.17.89-2.98.14-.81.18-1.54.1-2.16-.08-.63-.21-1.2-.39-1.71-.47-1.29-1.23-2.15-2.25-2.58-1.03-.43-2.29-.37-3.77.17-1.14.42-2.1,1.05-2.87,1.88-.77.83-1.32,1.86-1.65,3.08l-4.14-1.63c.39-1.82,1.24-3.43,2.53-4.84,1.29-1.4,2.92-2.47,4.88-3.19,1.74-.64,3.37-.86,4.89-.68,1.52.19,2.86.76,4.01,1.7,1.15.95,2.03,2.24,2.63,3.88.35.94.58,1.9.71,2.87.12.98.09,2.07-.12,3.29-.2,1.22-.62,2.65-1.27,4.29l-4.89,12.13-1.65-1.63,14.07-5.17,1.63,4.43-17.71,6.51Z"/>
    <path class="cls-14" d="m818.34,1055.52c-1.61.77-3.31,1.25-5.12,1.44-1.81.2-3.48.04-5.02-.46l-.05-4.78c1.22.4,2.54.57,3.98.49,1.43-.08,2.79-.42,4.06-1.03,1.54-.73,2.57-1.68,3.1-2.83.53-1.16.49-2.38-.13-3.67-.41-.85-.95-1.51-1.63-1.98-.68-.47-1.56-.66-2.62-.58-1.07.08-2.42.51-4.04,1.28l-5.54,2.64-5.83-15.3,13.57-6.46,2.03,4.26-12.01,5.72,1.13-3.49,4.37,11.47-3.39-1.33,4.62-2.2c2.31-1.1,4.34-1.63,6.09-1.59,1.75.04,3.24.54,4.47,1.48,1.23.95,2.23,2.23,3,3.83.75,1.58,1.11,3.18,1.08,4.81-.03,1.63-.53,3.17-1.49,4.61-.96,1.44-2.5,2.66-4.61,3.67Z"/>
  </g>
  <path class="cls-4" d="m619.21,555.35c-1.52-.96-3.18-1.73-4.97-2.31-1.8-.58-3.61-1.06-5.42-1.44-1.82-.39-3.48-.76-4.97-1.12-1.5-.36-2.72-.83-3.66-1.41-.94-.58-1.41-1.38-1.41-2.41,0-.68.23-1.33.71-1.92.47-.6,1.24-1.09,2.31-1.48,1.07-.38,2.48-.58,4.24-.58,1.97,0,4,.28,6.1.83,2.1.56,4.21,1.43,6.35,2.63l3.85-9.37c-2.18-1.33-4.7-2.32-7.54-2.98-2.85-.66-5.74-1-8.7-1-4.41,0-8.09.66-11.04,1.99s-5.16,3.08-6.61,5.26c-1.46,2.18-2.18,4.6-2.18,7.25,0,2.4.46,4.39,1.38,5.97.92,1.58,2.13,2.87,3.63,3.85,1.5.98,3.17,1.78,5.01,2.37,1.84.6,3.65,1.08,5.42,1.44,1.78.36,3.42.75,4.94,1.16,1.52.41,2.75.9,3.69,1.48.94.58,1.41,1.36,1.41,2.34,0,.77-.25,1.43-.74,1.99-.49.56-1.26.98-2.31,1.28-1.05.3-2.47.45-4.27.45-2.61,0-5.23-.42-7.86-1.25-2.63-.83-4.95-1.89-6.96-3.18l-4.17,9.43c2.1,1.41,4.85,2.58,8.25,3.5s6.96,1.38,10.69,1.38c4.45,0,8.15-.66,11.1-1.99,2.95-1.33,5.17-3.09,6.64-5.29,1.48-2.2,2.21-4.61,2.21-7.22,0-2.35-.47-4.31-1.41-5.87-.94-1.56-2.17-2.82-3.69-3.79Zm72.11,23.27h12.71v-44.93h-12.71v44.93Zm-10.91-44.93h-13.93l-17.39,18.66v-18.66h-12.52v44.93h12.52v-11.25l4.72-5.05,12.87,16.31h14.76l-19.28-25.02,18.25-19.9Zm73.36,2.76c-3.77-1.84-8.11-2.76-13.03-2.76h-21.24v44.93h21.24c4.92,0,9.26-.92,13.03-2.76,3.76-1.84,6.71-4.44,8.83-7.8,2.12-3.36,3.18-7.35,3.18-11.97s-1.06-8.54-3.18-11.87c-2.12-3.34-5.06-5.93-8.83-7.77Zm-2.44,26.28c-1.07,1.86-2.56,3.28-4.46,4.27-1.9.98-4.16,1.48-6.77,1.48h-7.89v-24.65h7.89c2.61,0,4.87.49,6.77,1.48,1.9.98,3.39,2.39,4.46,4.2,1.07,1.82,1.6,4.03,1.6,6.64s-.54,4.72-1.6,6.58Zm61.87-3.59c-.94-1.56-2.17-2.82-3.69-3.79-1.52-.96-3.18-1.73-4.97-2.31-1.8-.58-3.61-1.06-5.42-1.44-1.82-.39-3.48-.76-4.97-1.12-1.5-.36-2.72-.83-3.66-1.41-.94-.58-1.41-1.38-1.41-2.41,0-.68.23-1.33.71-1.92.47-.6,1.24-1.09,2.31-1.48,1.07-.38,2.48-.58,4.24-.58,1.97,0,4,.28,6.1.83,2.1.56,4.21,1.43,6.35,2.63l3.85-9.37c-2.18-1.33-4.7-2.32-7.54-2.98-2.85-.66-5.74-1-8.7-1-4.41,0-8.09.66-11.04,1.99s-5.16,3.08-6.61,5.26c-1.46,2.18-2.18,4.6-2.18,7.25,0,2.4.46,4.39,1.38,5.97.92,1.58,2.13,2.87,3.63,3.85,1.5.98,3.17,1.78,5.01,2.37,1.84.6,3.65,1.08,5.42,1.44,1.78.36,3.42.75,4.94,1.16,1.52.41,2.75.9,3.69,1.48.94.58,1.41,1.36,1.41,2.34,0,.77-.25,1.43-.74,1.99-.49.56-1.26.98-2.31,1.28-1.05.3-2.47.45-4.27.45-2.61,0-5.23-.42-7.86-1.25-2.63-.83-4.95-1.89-6.96-3.18l-4.17,9.43c2.1,1.41,4.85,2.58,8.25,3.5s6.96,1.38,10.69,1.38c4.45,0,8.15-.66,11.1-1.99,2.95-1.33,5.17-3.09,6.64-5.29,1.48-2.2,2.21-4.61,2.21-7.22,0-2.35-.47-4.31-1.41-5.87Z"/>
  <path class="cls-14" d="m549.78,609.82h2.75v-7.79h9.66v-2.37h-9.66v-6.71h10.84v-2.39h-13.59v19.26Zm38.99-16.69c-.92-.89-2-1.58-3.25-2.06-1.25-.49-2.6-.73-4.07-.73s-2.85.25-4.1.74-2.33,1.19-3.25,2.08c-.92.89-1.63,1.93-2.15,3.12s-.77,2.49-.77,3.91.26,2.71.77,3.91,1.23,2.23,2.15,3.12c.92.89,2,1.58,3.26,2.08,1.26.5,2.62.74,4.09.74s2.82-.24,4.07-.73c1.25-.49,2.33-1.17,3.25-2.06s1.63-1.93,2.13-3.12c.5-1.19.76-2.5.76-3.93s-.25-2.72-.76-3.92c-.5-1.2-1.21-2.25-2.13-3.14Zm-.43,10c-.38.9-.9,1.68-1.57,2.35-.67.67-1.46,1.19-2.37,1.55-.91.37-1.9.55-2.98.55s-2.05-.18-2.96-.55c-.91-.37-1.7-.88-2.38-1.55s-1.21-1.45-1.58-2.35-.56-1.88-.56-2.94.19-2.04.56-2.93.9-1.67,1.58-2.35c.68-.68,1.47-1.2,2.38-1.57.91-.37,1.89-.55,2.96-.55s2.08.18,2.98.55c.91.37,1.7.89,2.37,1.57.67.68,1.19,1.46,1.57,2.35s.56,1.87.56,2.93-.19,2.05-.56,2.94Zm29.04-10c-.92-.89-2-1.58-3.25-2.06-1.25-.49-2.6-.73-4.07-.73s-2.85.25-4.1.74-2.33,1.19-3.25,2.08c-.92.89-1.63,1.93-2.15,3.12s-.77,2.49-.77,3.91.26,2.71.77,3.91,1.23,2.23,2.15,3.12c.92.89,2,1.58,3.26,2.08,1.26.5,2.62.74,4.09.74s2.82-.24,4.07-.73c1.25-.49,2.33-1.17,3.25-2.06s1.63-1.93,2.13-3.12c.5-1.19.76-2.5.76-3.93s-.25-2.72-.76-3.92c-.5-1.2-1.21-2.25-2.13-3.14Zm-.43,10c-.38.9-.9,1.68-1.57,2.35-.67.67-1.46,1.19-2.37,1.55-.91.37-1.9.55-2.98.55s-2.05-.18-2.96-.55c-.91-.37-1.7-.88-2.38-1.55s-1.21-1.45-1.58-2.35-.56-1.88-.56-2.94.19-2.04.56-2.93.9-1.67,1.58-2.35c.68-.68,1.47-1.2,2.38-1.57.91-.37,1.89-.55,2.96-.55s2.08.18,2.98.55c.91.37,1.7.89,2.37,1.57.67.68,1.19,1.46,1.57,2.35s.56,1.87.56,2.93-.19,2.05-.56,2.94Zm10.25-10.18h6.6v16.87h2.72v-16.87h6.6v-2.39h-15.93v2.39Zm193.69,8.45c0,2.15-.47,3.71-1.42,4.71-.95.99-2.29,1.49-4.03,1.49s-3.06-.5-4-1.49c-.94-.99-1.42-2.56-1.42-4.71v-10.84h-2.75v10.95c0,2.79.72,4.91,2.17,6.36,1.45,1.45,3.44,2.17,5.97,2.17s4.54-.72,5.98-2.17c1.44-1.45,2.16-3.57,2.16-6.36v-10.95h-2.67v10.84Zm-32.55-10.84h-2.75v19.26h13.18v-2.39h-10.43v-16.87Zm-24.82,4.32c.68-.66,1.48-1.17,2.41-1.54.93-.37,1.93-.55,3.01-.55s2.03.19,2.94.56c.92.38,1.74.95,2.48,1.72l1.79-1.73c-.88-.99-1.95-1.74-3.21-2.24-1.26-.5-2.63-.76-4.11-.76s-2.82.24-4.06.73c-1.24.49-2.32,1.17-3.23,2.06-.92.89-1.63,1.93-2.15,3.12s-.77,2.5-.77,3.93.26,2.74.77,3.93,1.22,2.23,2.13,3.12c.91.89,1.98,1.58,3.22,2.06s2.59.73,4.06.73,2.88-.26,4.14-.77c1.26-.51,2.33-1.27,3.21-2.26l-1.79-1.73c-.73.79-1.56,1.37-2.48,1.75-.92.38-1.9.56-2.94.56s-2.09-.18-3.01-.55c-.93-.37-1.73-.88-2.41-1.54s-1.21-1.44-1.58-2.35-.56-1.89-.56-2.96.19-2.05.56-2.96.9-1.69,1.58-2.35Zm87,6.97c-.5-.74-1.17-1.31-2.01-1.69-.28-.13-.58-.23-.89-.31.01,0,.03-.01.04-.02.79-.38,1.42-.94,1.88-1.65.47-.72.7-1.6.7-2.64,0-1.54-.6-2.76-1.79-3.65-1.19-.89-2.9-1.33-5.12-1.33h-8.64v19.26h9.19c2.44,0,4.28-.45,5.52-1.36,1.24-.91,1.86-2.19,1.86-3.84,0-1.1-.25-2.02-.74-2.76Zm-13.07-9.07h5.64c1.39,0,2.48.26,3.25.77.77.51,1.16,1.28,1.16,2.31s-.39,1.8-1.16,2.31c-.77.51-1.85.77-3.25.77h-5.64v-6.16Zm9.82,14.03c-.81.51-1.97.77-3.49.77h-6.33v-6.41h6.33c1.52,0,2.69.26,3.49.77.81.51,1.21,1.33,1.21,2.45s-.4,1.91-1.21,2.42Zm-181.83-6.66c-.28-.13-.58-.23-.89-.31.01,0,.03-.01.04-.02.79-.38,1.42-.94,1.88-1.65.47-.72.7-1.6.7-2.64,0-1.54-.6-2.76-1.79-3.65-1.19-.89-2.9-1.33-5.12-1.33h-8.64v19.26h9.19c2.44,0,4.28-.45,5.52-1.36,1.24-.91,1.86-2.19,1.86-3.84,0-1.1-.25-2.02-.74-2.76s-1.17-1.31-2.01-1.69Zm-11.06-7.37h5.64c1.39,0,2.48.26,3.25.77.77.51,1.16,1.28,1.16,2.31s-.39,1.8-1.16,2.31c-.77.51-1.85.77-3.25.77h-5.64v-6.16Zm9.82,14.03c-.81.51-1.97.77-3.49.77h-6.33v-6.41h6.33c1.52,0,2.69.26,3.49.77.81.51,1.21,1.33,1.21,2.45s-.4,1.91-1.21,2.42Zm19.56-16.26l-8.72,19.26h2.83l2.12-4.81h10.24l2.12,4.81h2.89l-8.75-19.26h-2.72Zm-2.8,12.24l4.15-9.45,4.15,9.45h-8.31Zm25.39-12.24h-2.75v19.26h13.18v-2.39h-10.43v-16.87Zm21.85,0h-2.75v19.26h13.18v-2.39h-10.43v-16.87Z"/>
</svg>